<?xml version="1.0" encoding="utf-8"?>
<!-- Generator: Adobe Illustrator 26.2.1, SVG Export Plug-In . SVG Version: 6.00 Build 0)  -->
<svg version="1.1" id="Layer_1" xmlns="http://www.w3.org/2000/svg" xmlns:xlink="http://www.w3.org/1999/xlink" x="0px" y="0px"
	 viewBox="0 0 600.9 539.3" style="enable-background:new 0 0 600.9 539.3;" xml:space="preserve">
<style type="text/css">
	.st0{fill:#BEAE6F;stroke:#BEAE6F;stroke-width:25;stroke-miterlimit:10;}
</style>
<path class="st0" d="M588.3,268c0,18-15,32.1-32,32.1h-32l0.7,160.1c0,2.8-0.2,5.4-0.5,8.1v48.8c0,4.1-3.3,7.4-7.4,7.4h-48.6
	c-1.1,0-2.2-0.9-3.3-0.1c-1.4-0.8-2.8,0.1-4.2,0.1h-89.1c-4.1,0-7.4-3.3-7.4-7.4V364.5h-128v152.6c0,4.1-3.3,7.4-7.4,7.4h-88.5
	c-1.5,0-3-0.1-4.5-0.2c-1.2,0.1-2.4,0.2-3.6,0.2H83.9c-4.1,0-7.4-3.3-7.4-7.4V372.5c0-0.9,0-1.9,0.1-2.8v-69.6H46
	c-20.6,0-36.7-18.6-32.9-38.8c1.2-6.3,4.2-12.1,9.4-17.3L278.9,20.5c7-7,15-8,22-8s15,2,21.1,7L577.3,244
	C585.3,251,589.4,259,588.3,268L588.3,268z"/>
</svg>
