<?xml version="1.0" encoding="utf-8"?>
<!-- Generator: Adobe Illustrator 26.2.1, SVG Export Plug-In . SVG Version: 6.00 Build 0)  -->
<svg version="1.1" id="Layer_1" xmlns="http://www.w3.org/2000/svg" xmlns:xlink="http://www.w3.org/1999/xlink" x="0px" y="0px"
	 viewBox="0 0 458.2 632.4" style="enable-background:new 0 0 458.2 632.4;" xml:space="preserve">
<style type="text/css">
	.st0{fill:none;stroke:#BEAE6F;stroke-width:25;stroke-miterlimit:10;}
</style>
<path class="st0" d="M229.7,15C124.2,15,39.1,100.4,39.1,205.5c0,58.3,52,147.2,101.7,218.4c24.4,34.8,48.3,65.5,65.2,86.5
	c12.1,15.2,34.8,15.2,47.1,0c16.7-21,40.5-51.4,64.7-86.2c49.7-71.3,102.3-160.1,102.3-218.4C420.2,100.4,334.9,15,229.7,15z
	 M229.7,142c35.1,0,63.5,28.5,63.5,63.5s-28.5,63.5-63.5,63.5s-63.5-28.5-63.5-63.5S194.6,142,229.7,142z"/>
<path class="st0" d="M443.2,516.2c0,55.8-95.7,101.2-214.1,101.2S15,572,15,516.2c0-41.1,51.7-76.4,125.9-92.3
	c24.4,34.8,48.3,65.5,65.2,86.5c12.1,15.2,34.8,15.2,47.1,0c16.7-21,40.5-51.4,64.7-86.2C391.8,440.1,443.2,475.1,443.2,516.2z"/>
</svg>
