<?xml version="1.0" encoding="utf-8"?>
<!-- Generator: Adobe Illustrator 26.2.1, SVG Export Plug-In . SVG Version: 6.00 Build 0)  -->
<svg version="1.1" id="Layer_1" xmlns="http://www.w3.org/2000/svg" xmlns:xlink="http://www.w3.org/1999/xlink" x="0px" y="0px"
	 viewBox="0 0 537 537" style="enable-background:new 0 0 537 537;" xml:space="preserve">
<style type="text/css">
	.st0{fill:#BEAE6F;stroke:#BEAE6F;stroke-width:25;stroke-miterlimit:10;}
</style>
<path class="st0" d="M523.7,399.5l-23.2,100.8c-3.3,14.2-15.8,24.2-30.5,24.2C217.7,524.5,12.5,319.3,12.5,67
	c0-14.7,10-27.2,24.2-30.5l100.8-23.2c14.7-3.4,29.7,4.2,35.8,18.1l46.5,108.5c5.4,12.8,1.8,27.7-9,36.4L157,219.6
	c34,69.2,90.3,125.5,159.5,159.5l44.1-53.8c8.7-10.8,23.7-14.5,36.5-9l108.5,46.5C518.6,369.7,527.1,384.9,523.7,399.5z"/>
</svg>
