<?xml version="1.0" encoding="utf-8"?>
<!-- Generator: Adobe Illustrator 26.2.1, SVG Export Plug-In . SVG Version: 6.00 Build 0)  -->
<svg version="1.1" id="Layer_1" xmlns="http://www.w3.org/2000/svg" xmlns:xlink="http://www.w3.org/1999/xlink" x="0px" y="0px"
	 viewBox="0 0 427 560.7" style="enable-background:new 0 0 427 560.7;" xml:space="preserve">
<style type="text/css">
	.st0{fill:none;stroke:#707070;stroke-width:5;stroke-miterlimit:10;}
</style>
<path class="st0" d="M213.5,2.5c-106,0-192,86-192,192c0,54.8,45.7,136.5,92.6,205.6c27.9,41.1,56.2,77.7,75.7,101.6
	c12.3,15.3,35.1,15.3,47.4,0c19.1-23.9,47.4-60.6,75.3-101.7c47-69.1,93-150.7,93-205.5C405.5,88.5,319.5,2.5,213.5,2.5z
	 M213.5,130.5c35.3,0,64,28.7,64,64c0,35.3-28.7,64-64,64s-64-28.7-64-64C149.5,159.2,178.2,130.5,213.5,130.5z"/>
<path class="st0" d="M424.5,474.2c0,46.4-94.5,84-211,84s-211-37.6-211-84c0-32.1,45.2-60,111.6-74.1
	c27.9,41.1,56.2,77.7,75.7,101.6c12.3,15.3,35.1,15.3,47.4,0c19.1-23.9,47.4-60.6,75.3-101.7C379.2,414.1,424.5,442.1,424.5,474.2z"
	/>
</svg>
